<svg width="15" height="15" viewBox="0 0 15 15" fill="none" xmlns="http://www.w3.org/2000/svg">
<path d="M13.5001 13.4999V9.10492C13.5001 6.94492 13.0351 5.29492 10.5151 5.29492C9.30012 5.29492 8.49012 5.95492 8.16012 6.58492H8.13012V5.48992H5.74512V13.4999H8.23512V9.52492C8.23512 8.47492 8.43012 7.46992 9.72012 7.46992C10.9951 7.46992 11.0101 8.65492 11.0101 9.58492V13.4849H13.5001V13.4999Z" fill="white"/>
<path d="M1.69531 5.49023H4.18531V13.5002H1.69531V5.49023Z" fill="white"/>
<path d="M2.94 1.5C2.145 1.5 1.5 2.145 1.5 2.94C1.5 3.735 2.145 4.395 2.94 4.395C3.735 4.395 4.38 3.735 4.38 2.94C4.38 2.145 3.735 1.5 2.94 1.5Z" fill="white"/>
</svg>
