<svg width="10" height="10" viewBox="0 0 10 10" fill="none" xmlns="http://www.w3.org/2000/svg">
<g clip-path="url(#clip0_2504_253)">
<path d="M9.88543 4.7235C9.88531 4.72338 9.88521 4.72324 9.88508 4.72312L7.84398 2.69187C7.69107 2.53971 7.44375 2.54027 7.29154 2.6932C7.13936 2.84611 7.13994 3.09344 7.29285 3.24562L8.66324 4.60937H0.390625C0.174883 4.60937 0 4.78426 0 5C0 5.21574 0.174883 5.39062 0.390625 5.39062H8.66322L7.29287 6.75437C7.13996 6.90656 7.13938 7.15389 7.29156 7.3068C7.44377 7.45975 7.69111 7.46027 7.844 7.30812L9.8851 5.27687C9.88521 5.27676 9.88531 5.27662 9.88545 5.2765C10.0384 5.12381 10.0379 4.87568 9.88543 4.7235Z" fill="#18191D"/>
</g>
<defs>
<clipPath id="clip0_2504_253">
<rect width="10" height="10" fill="white"/>
</clipPath>
</defs>
</svg>
