<svg width="20" height="8" viewBox="0 0 20 8" fill="none" xmlns="http://www.w3.org/2000/svg">
<path d="M0.461063 4.4077H19.538C19.7649 4.4077 19.9482 4.22437 19.9482 3.99745C19.9482 3.77052 19.7649 3.58719 19.538 3.58719H1.45209L3.94183 1.09745C4.10209 0.937189 4.10209 0.676933 3.94183 0.516677C3.78158 0.35642 3.52132 0.35642 3.36106 0.516677L0.170038 3.7077C0.0520878 3.82565 0.0174732 4.00129 0.0815754 4.15514C0.145678 4.3077 0.295677 4.4077 0.461063 4.4077Z" fill="black"/>
<path d="M3.65549 7.60277C3.76062 7.60277 3.86575 7.56303 3.94524 7.48226C4.10549 7.322 4.10549 7.06175 3.94524 6.90149L0.750365 3.70662C0.590108 3.54636 0.329853 3.54636 0.169597 3.70662C0.00934029 3.86687 0.00934029 4.12713 0.169597 4.28739L3.36447 7.48226C3.44524 7.56303 3.55036 7.60277 3.65549 7.60277Z" fill="black"/>
</svg>
