<svg width="45" height="44" viewBox="0 0 45 44" fill="none" xmlns="http://www.w3.org/2000/svg">
<path d="M24.0421 24.0743C28.1032 25.968 32.2942 26.9083 35.8368 26.7233C35.8586 26.7222 35.8789 26.7197 35.9003 26.7187L36.1546 1.53881C36.1632 0.648536 35.1697 0.113941 34.4319 0.611753L13.251 14.9012C14.9669 18.1705 18.9297 21.6898 24.0421 24.0743Z" fill="#FEC63F"/>
<path d="M34.9524 29.1411C31.2578 29.1411 27.0678 28.128 23.0299 26.245C17.4597 23.6473 13.2708 19.9427 11.2571 16.2466L0.488043 23.512C-0.353309 24.0794 -0.048676 25.3861 0.956947 25.5225L19.0424 27.9819C20.1063 28.1266 21.0826 28.6519 21.7893 29.4604L33.8047 43.1995C34.4725 43.9633 35.7309 43.498 35.7413 42.4831L35.8763 29.1172C35.572 29.1318 35.2645 29.1411 34.9524 29.1411Z" fill="#FEC63F"/>
<path d="M34.953 27.2341C31.2579 27.2341 27.068 26.2206 23.0305 24.3379C13.5306 19.9076 8.03826 12.2576 10.5266 6.9213C13.0153 1.58571 22.4062 0.876135 31.9057 5.30645C35.0137 6.7556 37.8306 8.63507 40.0514 10.7417C40.5317 11.197 40.5514 11.9548 40.0964 12.4347C39.6411 12.9143 38.8833 12.9343 38.4037 12.4794C36.3675 10.5481 33.7706 8.81827 30.8937 7.47661C22.8873 3.74266 14.5541 3.95157 12.6975 7.93335C10.8409 11.9148 16.0365 18.4328 24.0432 22.1667C28.1043 24.0605 32.2932 25.0022 35.8379 24.8154C39.1122 24.6443 41.3856 23.5412 42.2394 21.71C43.1301 19.8005 42.2684 17.62 41.3888 16.1265C41.0531 15.5566 41.2431 14.8227 41.8127 14.487C42.3826 14.1514 43.1169 14.341 43.4525 14.9113C45.1085 17.7221 45.4488 20.4965 44.4103 22.7227C43.1644 25.395 40.1643 26.9877 35.9636 27.2077C35.6315 27.2255 35.294 27.2341 34.953 27.2341Z" fill="black"/>
</svg>
