<svg width="35" height="35" viewBox="0 0 35 35" fill="none" xmlns="http://www.w3.org/2000/svg">
<circle cx="17.5" cy="17.5" r="17" stroke="#454A53"/>
<g clip-path="url(#clip0_122_2122)">
<path d="M19.7568 18.1783C20.4925 20.0395 21.0387 21.9555 21.3937 23.913C21.9001 23.6043 22.3734 23.2333 22.8036 22.8032C23.921 21.6857 24.6421 20.2776 24.8968 18.7494C23.7991 18.2953 22.5969 18.0439 21.337 18.0439C20.7985 18.0439 20.2707 18.0904 19.7568 18.1783Z" fill="white"/>
<path d="M22.8095 12.2031C22.8073 12.201 22.8052 12.1988 22.8032 12.1967C21.3865 10.7801 19.5032 10 17.4999 10C16.7165 10 15.9515 10.1198 15.2256 10.3498C16.3891 11.8076 17.4127 13.3633 18.2899 15.0075C19.9424 14.3058 21.4646 13.3552 22.8095 12.2031Z" fill="white"/>
<path d="M23.3992 12.8672C21.9884 14.079 20.4119 15.061 18.6963 15.7949C18.9492 16.3041 19.188 16.8214 19.4135 17.3463C20.043 17.2265 20.6854 17.1654 21.3371 17.1654C22.5995 17.1654 23.8274 17.3924 24.9925 17.8393C24.9975 17.7267 25.0004 17.6137 25.0004 17.5003C25.0004 15.7984 24.4371 14.1833 23.3992 12.8672Z" fill="white"/>
<path d="M12.8838 23.4121C14.1968 24.4416 15.8056 24.9999 17.5002 24.9999C18.5773 24.9999 19.6197 24.774 20.5735 24.3453C20.216 22.2737 19.6436 20.2749 18.8798 18.3726C16.2256 19.097 14.0388 20.9649 12.8838 23.4121Z" fill="white"/>
<path d="M17.3582 17.9683C17.744 17.8051 18.1372 17.6669 18.5366 17.5531C18.3258 17.0704 18.1022 16.5946 17.8669 16.1255C15.8407 16.8778 13.7102 17.259 11.5216 17.259C11.0131 17.259 10.508 17.2381 10.0065 17.1971C10.0025 17.2977 10 17.3986 10 17.4999C10 19.5032 10.7801 21.3866 12.1967 22.8031C12.1972 22.8036 12.1977 22.804 12.1982 22.8045C12.6881 21.8274 13.3289 20.9393 14.1096 20.1585C15.0481 19.2201 16.141 18.4832 17.3582 17.9683Z" fill="white"/>
<path d="M17.4556 15.3364C16.5656 13.6881 15.5243 12.133 14.3507 10.6895C13.5598 11.0558 12.8312 11.5622 12.1965 12.1969C11.0617 13.3317 10.3358 14.7662 10.0918 16.3219C10.5633 16.3605 11.0401 16.3805 11.5214 16.3805C13.6044 16.3805 15.6032 16.0118 17.4556 15.3364Z" fill="white"/>
</g>
<defs>
<clipPath id="clip0_122_2122">
<rect width="15" height="15" fill="white" transform="translate(10 10)"/>
</clipPath>
</defs>
</svg>
