<svg width="35" height="35" viewBox="0 0 35 35" fill="none" xmlns="http://www.w3.org/2000/svg">
<circle cx="17.5" cy="17.5" r="17.5" fill="#E9A132"/>
<path d="M23.5001 22.4999V18.1049C23.5001 15.9449 23.0351 14.2949 20.5151 14.2949C19.3001 14.2949 18.4901 14.9549 18.1601 15.5849H18.1301V14.4899H15.7451V22.4999H18.2351V18.5249C18.2351 17.4749 18.4301 16.4699 19.7201 16.4699C20.9951 16.4699 21.0101 17.6549 21.0101 18.5849V22.4849H23.5001V22.4999Z" fill="white"/>
<path d="M11.6953 14.4902H14.1853V22.5002H11.6953V14.4902Z" fill="white"/>
<path d="M12.94 10.5C12.145 10.5 11.5 11.145 11.5 11.94C11.5 12.735 12.145 13.395 12.94 13.395C13.735 13.395 14.38 12.735 14.38 11.94C14.38 11.145 13.735 10.5 12.94 10.5Z" fill="white"/>
</svg>
